<svg aria-hidden="true" style="position: absolute; width: 0; height: 0; overflow: hidden;" version="1.1" xmlns="http://www.w3.org/2000/svg" xmlns:xlink="http://www.w3.org/1999/xlink">
<defs>
<symbol id="icon-close" viewBox="0 0 24 24">
<path d="M18.984 6.422l-5.578 5.578 5.578 5.578-1.406 1.406-5.578-5.578-5.578 5.578-1.406-1.406 5.578-5.578-5.578-5.578 1.406-1.406 5.578 5.578 5.578-5.578z"></path>
</symbol>
<symbol id="icon-dark-theme" viewBox="0 0 24 24">
<path d="M9 2.016q4.125 0 7.055 2.93t2.93 7.055-2.93 7.055-7.055 2.93q-1.594 0-3-0.422 3.094-0.938 5.039-3.586t1.945-5.977-1.945-5.977-5.039-3.586q1.406-0.422 3-0.422z"></path>
</symbol>
<symbol id="icon-light-theme" viewBox="0 0 24 24">
<path d="M3.563 18.563l1.781-1.828 1.406 1.406-1.781 1.828zM11.016 22.453v-2.953h1.969v2.953h-1.969zM12 5.484q2.484 0 4.242 1.758t1.758 4.242-1.758 4.242-4.242 1.758-4.242-1.758-1.758-4.242 1.758-4.242 4.242-1.758zM20.016 10.5h3v2.016h-3v-2.016zM17.25 18.141l1.406-1.359 1.781 1.781-1.406 1.406zM20.438 4.453l-1.781 1.781-1.406-1.406 1.781-1.781zM12.984 0.563v2.953h-1.969v-2.953h1.969zM3.984 10.5v2.016h-3v-2.016h3zM6.75 4.828l-1.406 1.406-1.781-1.781 1.406-1.406z"></path>
</symbol>
<symbol id="icon-menu" viewBox="0 0 24 24">
<path d="M3 6h18v2.016h-18v-2.016zM3 12.984v-1.969h18v1.969h-18zM3 18v-2.016h18v2.016h-18z"></path>
</symbol>
<symbol id="icon-coins" viewBox="0 0 404.09 404.091">
<path d="M195.591,99.628v28.446c-0.011,14.726-43.794,26.667-97.795,26.667C43.784,154.742,0.012,142.8,0,128.075V99.628
			c0,14.73,43.784,26.67,97.795,26.67C151.808,126.299,195.591,114.359,195.591,99.628z M195.591,94.242
			c0,14.733-43.783,26.673-97.795,26.673C43.784,120.915,0,108.975,0,94.242c0-14.731,43.784-26.67,97.795-26.67
			C151.808,67.571,195.591,79.511,195.591,94.242z M145.003,92.725l-85.911-5.863l-2.92,5.25l3.185,0.443
			c4.365,0.615,9.907,1.961,7.335,6.55l-0.801,1.428l15.88,1.083l0.801-1.431c1.104-1.983,1.445-3.68,1.029-5.13l57.894,3.948
			L145.003,92.725z M97.795,162.009C43.784,162.009,0,150.069,0,135.336v28.449c0.012,14.726,43.784,26.668,97.795,26.668
			c54.001,0,97.784-11.942,97.795-26.668v-28.449C195.591,150.069,151.801,162.009,97.795,162.009z M97.795,197.922
			C43.784,197.922,0,185.979,0,171.25v28.451c0.012,14.719,43.784,26.658,97.795,26.658c54.001,0,97.784-11.939,97.795-26.658
			V171.25C195.591,185.979,151.801,197.922,97.795,197.922z M97.795,233.217C43.784,233.217,0,221.276,0,206.541v28.454
			c0.012,14.719,43.784,26.665,97.795,26.665c54.001,0,97.784-11.946,97.795-26.665v-28.454
			C195.591,221.293,151.801,233.217,97.795,233.217z M97.795,268.09C43.784,268.09,0,256.144,0,241.414v28.442
			c0.012,14.73,43.784,26.67,97.795,26.67c54.001,0,97.784-11.939,97.795-26.67v-28.442
			C195.591,256.144,151.801,268.09,97.795,268.09z M97.795,302.891C43.784,302.891,0,290.951,0,276.215v28.454
			c0.012,14.721,43.784,26.665,97.795,26.665c54.001,0,97.784-11.944,97.795-26.665v-28.454
			C195.591,290.951,151.801,302.891,97.795,302.891z M209.106,101.533h0.714v0.722c15.497,2.818,34.122,4.471,54.162,4.471
			c53.995,0,97.771-11.94,97.795-26.665V51.612c0,14.732-43.787,26.673-97.795,26.673c-54.009,0-97.797-11.946-97.797-26.679V62.31
			c23.467,5.642,43.635,15.74,43.635,33.833C209.82,98.036,209.536,99.807,209.106,101.533z M166.185,46.222
			c0-14.731,43.789-26.67,97.797-26.67c54.008,0,97.795,11.939,97.795,26.67c0,14.736-43.787,26.678-97.795,26.678
			C209.973,72.9,166.185,60.958,166.185,46.222z M216.757,47.74l85.909,5.861l2.928-5.245l-3.19-0.441
			c-4.378-0.618-9.898-1.961-7.349-6.549l0.816-1.437l-15.879-1.081l-0.789,1.434c-1.117,1.984-1.456,3.683-1.041,5.133
			l-57.893-3.951L216.757,47.74z M263.982,142.43c53.995,0,97.771-11.939,97.795-26.665V87.316c0,14.73-43.787,26.673-97.795,26.673
			c-20.04,0-38.665-1.652-54.162-4.479v20.466c-0.013,2.583-0.448,4.985-1.228,7.256h1.228v0.722
			C225.309,140.784,243.942,142.43,263.982,142.43z M209.82,173.153v0.726c15.497,2.818,34.122,4.47,54.162,4.47
			c53.995,0,97.771-11.94,97.795-26.667v-28.446c0,14.736-43.787,26.676-97.795,26.676c-20.04,0-38.665-1.647-54.162-4.47v20.243
			c-0.013,2.667-0.494,5.144-1.315,7.469H209.82z M361.777,184.277v-25.743c0,8.901-16.034,16.755-40.593,21.601
			C331.964,180.617,346.919,181.733,361.777,184.277z M209.82,198.245c9.497-6.465,23.682-10.673,38.335-13.409
			c-13.986-0.621-26.998-2.038-38.335-4.101V198.245z M306.294,249.179c-54.014,0-97.795-11.946-97.795-26.688v28.454
			c0.027,14.73,43.792,26.671,97.795,26.671c54.017,0,97.785-11.94,97.796-26.671v-28.454
			C404.098,237.232,360.311,249.179,306.294,249.179z M306.294,190.453c54.017,0,97.796,11.94,97.796,26.665
			c0,14.731-43.779,26.676-97.796,26.676c-54.014,0-97.795-11.944-97.795-26.676C208.5,202.393,252.292,190.453,306.294,190.453z
			 M320.497,216.302l-57.896-3.95l-3.502,6.282l85.91,5.865l2.924-5.258l-3.185-0.433c-4.361-0.623-9.894-1.963-7.335-6.561
			l0.799-1.424l-15.88-1.078l-0.785,1.424C320.418,213.156,320.073,214.857,320.497,216.302z M306.294,284.877
			c-54.014,0-97.795-11.945-97.795-26.676v28.46c0.027,14.73,43.792,26.673,97.795,26.673c54.017,0,97.785-11.942,97.796-26.673
			v-28.442C404.098,272.932,360.311,284.877,306.294,284.877z M306.294,320.79c-54.014,0-97.795-11.939-97.795-26.67v28.449
			c0.027,14.719,43.792,26.665,97.795,26.665c54.017,0,97.785-11.946,97.796-26.665V294.12
			C404.098,308.861,360.311,320.79,306.294,320.79z M306.294,356.103c-54.014,0-97.795-11.947-97.795-26.678v28.454
			c0.027,14.721,43.792,26.66,97.795,26.66c54.017,0,97.785-11.939,97.796-26.66v-28.454
			C404.098,344.155,360.311,356.103,306.294,356.103z"></path>
</symbol>
<symbol id="icon-speed" viewBox="0 0 23 23">
<path d="M12 15.984q-0.797 0-1.406-0.586t-0.609-1.383q0-0.844 0.609-1.453l8.484-5.625-5.672 8.484q-0.563 0.563-1.406 0.563zM20.391 8.578q0.656 1.031 1.125 2.625t0.469 2.813q0 2.766-1.313 4.969-0.609 1.031-1.734 1.031h-13.875q-1.125 0-1.734-1.031-1.313-2.203-1.313-4.969 0-4.125 2.93-7.055t7.102-2.93q1.219 0 2.789 0.469t2.602 1.125l-1.875 1.219q-1.688-0.844-3.563-0.844-3.281 0-5.648 2.344t-2.367 5.672q0 2.156 1.078 3.984h13.875q1.078-1.828 1.078-3.984 0-1.922-0.844-3.609z"></path>
</symbol>
<symbol id="icon-sphere" viewBox="0 0 32 32">
<path d="M15 2c-8.284 0-15 6.716-15 15s6.716 15 15 15c8.284 0 15-6.716 15-15s-6.716-15-15-15zM23.487 22c0.268-1.264 0.437-2.606 0.492-4h3.983c-0.104 1.381-0.426 2.722-0.959 4h-3.516zM6.513 12c-0.268 1.264-0.437 2.606-0.492 4h-3.983c0.104-1.381 0.426-2.722 0.959-4h3.516zM21.439 12c0.3 1.28 0.481 2.62 0.54 4h-5.979v-4h5.439zM16 10v-5.854c0.456 0.133 0.908 0.355 1.351 0.668 0.831 0.586 1.625 1.488 2.298 2.609 0.465 0.775 0.867 1.638 1.203 2.578h-4.852zM10.351 7.422c0.673-1.121 1.467-2.023 2.298-2.609 0.443-0.313 0.895-0.535 1.351-0.668v5.854h-4.852c0.336-0.94 0.738-1.803 1.203-2.578zM14 12v4h-5.979c0.059-1.38 0.24-2.72 0.54-4h5.439zM2.997 22c-0.533-1.278-0.854-2.619-0.959-4h3.983c0.055 1.394 0.224 2.736 0.492 4h-3.516zM8.021 18h5.979v4h-5.439c-0.3-1.28-0.481-2.62-0.54-4zM14 24v5.854c-0.456-0.133-0.908-0.355-1.351-0.668-0.831-0.586-1.625-1.488-2.298-2.609-0.465-0.775-0.867-1.638-1.203-2.578h4.852zM19.649 26.578c-0.673 1.121-1.467 2.023-2.298 2.609-0.443 0.312-0.895 0.535-1.351 0.668v-5.854h4.852c-0.336 0.94-0.738 1.802-1.203 2.578zM16 22v-4h5.979c-0.059 1.38-0.24 2.72-0.54 4h-5.439zM23.98 16c-0.055-1.394-0.224-2.736-0.492-4h3.516c0.533 1.278 0.855 2.619 0.959 4h-3.983zM25.958 10h-2.997c-0.582-1.836-1.387-3.447-2.354-4.732 1.329 0.636 2.533 1.488 3.585 2.54 0.671 0.671 1.261 1.404 1.766 2.192zM5.808 7.808c1.052-1.052 2.256-1.904 3.585-2.54-0.967 1.285-1.771 2.896-2.354 4.732h-2.997c0.504-0.788 1.094-1.521 1.766-2.192zM4.042 24h2.997c0.583 1.836 1.387 3.447 2.354 4.732-1.329-0.636-2.533-1.488-3.585-2.54-0.671-0.671-1.261-1.404-1.766-2.192zM24.192 26.192c-1.052 1.052-2.256 1.904-3.585 2.54 0.967-1.285 1.771-2.896 2.354-4.732h2.997c-0.504 0.788-1.094 1.521-1.766 2.192z"></path>
</symbol>
<symbol id="icon-devices" viewBox="0 0 24 24">
<path d="M21.984 17.016v-7.031h-3.984v7.031h3.984zM23.016 8.016q0.422 0 0.703 0.281t0.281 0.703v9.984q0 0.422-0.281 0.727t-0.703 0.305h-6q-0.422 0-0.727-0.305t-0.305-0.727v-9.984q0-0.422 0.305-0.703t0.727-0.281h6zM3.984 6v11.016h10.031v3h-14.016v-3h2.016v-11.016q0-0.797 0.586-1.406t1.383-0.609h18v2.016h-18z"></path>
</symbol>
<symbol id="icon-router" viewBox="0 0 24 24">
<path d="M15 18v-2.016h-2.016v2.016h2.016zM11.484 18v-2.016h-1.969v2.016h1.969zM8.016 18v-2.016h-2.016v2.016h2.016zM18.984 12.984q0.797 0 1.406 0.609t0.609 1.406v3.984q0 0.797-0.609 1.406t-1.406 0.609h-13.969q-0.797 0-1.406-0.609t-0.609-1.406v-3.984q0-0.797 0.609-1.406t1.406-0.609h9.984v-3.984h2.016v3.984h1.969zM19.313 6.703l-0.797 0.797q-0.984-0.984-2.531-0.984-1.5 0-2.484 0.984l-0.797-0.797q1.406-1.406 3.281-1.406 1.922 0 3.328 1.406zM20.203 5.906q-1.922-1.688-4.219-1.688-2.25 0-4.172 1.688l-0.797-0.797q2.109-2.109 4.969-2.109 2.906 0 5.016 2.109z"></path>
</symbol>
<symbol id="icon-wifi" viewBox="0 0 24 24">
<path d="M5.016 12.984q2.906-2.859 7.008-2.859t6.961 2.859l-1.969 2.016q-0.844-0.844-2.32-1.453t-2.695-0.609-2.695 0.609-2.32 1.453zM9 17.016q1.266-1.266 3-1.266t3 1.266l-3 3zM0.984 9q4.594-4.547 11.039-4.547t10.992 4.547l-2.016 2.016q-3.75-3.703-9-3.703t-9 3.703z"></path>
</symbol>
<symbol id="icon-discount" viewBox="0 0 24 24">
<path d="M15.984 18l2.297-2.297-4.875-4.875-3.984 3.984-7.406-7.406 1.406-1.406 6 6 3.984-3.984 6.281 6.281 2.297-2.297v6h-6z"></path>
</symbol>
<symbol id="icon-camera" viewBox="0 0 24 24">
<path d="M17.016 15v-6l-3 2.016v-2.016h-7.031v6h7.031v-2.016zM20.016 2.016q0.797 0 1.383 0.586t0.586 1.383v8.016q0 4.219-3 7.102t-7.266 2.883q-3.938 0-6.82-2.906t-2.883-6.797q0-4.266 2.906-7.266t7.078-3h8.016z"></path>
</symbol>
<symbol id="icon-cash_register" viewBox="0 0 24 24">
<path d="M17.016 2.016h-10.031q-0.797 0-1.383 0.586t-0.586 1.383v2.016q0 0.844 0.586 1.43t1.383 0.586h10.031q0.797 0 1.383-0.586t0.586-1.43v-2.016q0-0.797-0.586-1.383t-1.383-0.586zM17.016 6h-10.031v-2.016h10.031v2.016zM20.016 21.984h-16.031q-0.797 0-1.383-0.586t-0.586-1.383v-1.031h19.969v1.031q0 0.797-0.586 1.383t-1.383 0.586zM18.516 10.172q-0.234-0.516-0.727-0.844t-1.102-0.328h-9.375q-0.609 0-1.102 0.328t-0.727 0.844l-3.469 7.828h19.969zM9.516 15.984h-1.031q-0.188 0-0.328-0.141t-0.141-0.328q0-0.234 0.141-0.375t0.328-0.141h1.031q0.188 0 0.328 0.141t0.141 0.375q0 0.188-0.141 0.328t-0.328 0.141zM9.516 14.016h-1.031q-0.188 0-0.328-0.164t-0.141-0.352 0.141-0.352 0.328-0.164h1.031q0.188 0 0.328 0.164t0.141 0.352-0.141 0.352-0.328 0.164zM9.516 12h-1.031q-0.188 0-0.328-0.141t-0.141-0.375q0-0.188 0.141-0.328t0.328-0.141h1.031q0.188 0 0.328 0.141t0.141 0.328q0 0.234-0.141 0.375t-0.328 0.141zM12.516 15.984h-1.031q-0.188 0-0.328-0.141t-0.141-0.328q0-0.234 0.141-0.375t0.328-0.141h1.031q0.188 0 0.328 0.141t0.141 0.375q0 0.188-0.141 0.328t-0.328 0.141zM12.516 14.016h-1.031q-0.188 0-0.328-0.164t-0.141-0.352 0.141-0.352 0.328-0.164h1.031q0.188 0 0.328 0.164t0.141 0.352-0.141 0.352-0.328 0.164zM12.516 12h-1.031q-0.188 0-0.328-0.141t-0.141-0.375q0-0.188 0.141-0.328t0.328-0.141h1.031q0.188 0 0.328 0.141t0.141 0.328q0 0.234-0.141 0.375t-0.328 0.141zM15.516 15.984h-1.031q-0.188 0-0.328-0.141t-0.141-0.328q0-0.234 0.141-0.375t0.328-0.141h1.031q0.188 0 0.328 0.141t0.141 0.375q0 0.188-0.141 0.328t-0.328 0.141zM15.516 14.016h-1.031q-0.188 0-0.328-0.164t-0.141-0.352 0.141-0.352 0.328-0.164h1.031q0.188 0 0.328 0.164t0.141 0.352-0.141 0.352-0.328 0.164zM15.516 12h-1.031q-0.188 0-0.328-0.141t-0.141-0.375q0-0.188 0.141-0.328t0.328-0.141h1.031q0.188 0 0.328 0.141t0.141 0.328q0 0.234-0.141 0.375t-0.328 0.141z"></path>
</symbol>
<symbol id="icon-antenna" viewBox="0 0 24 24">
<path d="M12 0.984q4.547 0 7.781 3.234t3.234 7.781h-2.016q0-3.75-2.625-6.375t-6.375-2.625-6.375 2.625-2.625 6.375h-2.016q0-4.547 3.234-7.781t7.781-3.234zM12.984 14.297v3.281l3.422 3.422-1.406 1.406-3-3-3 3-1.406-1.406 3.422-3.422v-3.281q-1.5-0.609-1.5-2.297 0-1.031 0.727-1.758t1.758-0.727 1.758 0.727 0.727 1.758q0 1.688-1.5 2.297zM12 5.016q2.906 0 4.945 2.039t2.039 4.945h-1.969q0-2.063-1.477-3.539t-3.539-1.477-3.539 1.477-1.477 3.539h-1.969q0-2.906 2.039-4.945t4.945-2.039z"></path>
</symbol>
</defs>
</svg>
